<svg xmlns="http://www.w3.org/2000/svg" width="380" height="274" viewBox="0 0 380 274" fill="none">
  <defs>
    <filter id="shadow" x="-2%" y="-2%" width="104%" height="104%">
      <feDropShadow dx="0" dy="1" stdDeviation="2" flood-color="#000" flood-opacity="0.15"/>
    </filter>
    <clipPath id="avatarClip"><circle cx="0" cy="0" r="18"/></clipPath>
  </defs>
  <rect x="1" y="1" width="378" height="272" rx="10" ry="10"
        fill="#1a2230" stroke="#2a3444" stroke-width="1" filter="url(#shadow)"/>
  <text x="20" y="30" font-family="-apple-system,BlinkMacSystemFont,Segoe UI,Noto Sans,Helvetica,Arial,sans-serif" font-size="11" font-weight="600" fill="#7d8895" letter-spacing="0.8" opacity="0.7">ACHIEVEMENTS</text>
  <g transform="translate(0, 36)">
    
    <g transform="translate(16, 8)">
      <rect width="348" height="48" rx="8" fill="#d29922" opacity="0.06"/>
      <rect width="348" height="48" rx="8" fill="none" stroke="#d29922" stroke-width="0.5" opacity="0.3"/>
      <g transform="translate(12, 12)">
        <svg viewBox="0 0 24 24" width="24" height="24">
          <rect x="4" y="5" width="16" height="11" rx="1" fill="none" stroke="#d29922" stroke-width="1.5"/>
          <rect x="3" y="16" width="18" height="1.5" rx="0.5" fill="#d29922" opacity="0.85"/>
          <path d="M9 9l-2 3 2 3m6-6l2 3-2 3" stroke="#d29922" stroke-width="1.5" stroke-linecap="round" stroke-linejoin="round" fill="none"/>
        </svg>
      </g>
      <text x="48" y="20" font-family="-apple-system,BlinkMacSystemFont,Segoe UI,Helvetica,Arial,sans-serif"
            font-size="13" font-weight="600" fill="#d1d9e0">Hackathon winner</text>
      <text x="48" y="36" font-family="-apple-system,BlinkMacSystemFont,Segoe UI,Helvetica,Arial,sans-serif"
            font-size="10" fill="#7d8895">Y Combinator AI Hackathon · 2025-11</text>
    </g>
    <g transform="translate(16, 64)">
      <rect width="348" height="48" rx="8" fill="#3fb950" opacity="0.06"/>
      <rect width="348" height="48" rx="8" fill="none" stroke="#3fb950" stroke-width="0.5" opacity="0.3"/>
      <g transform="translate(12, 12)">
        <svg viewBox="0 0 24 24" width="24" height="24">
          <path d="M12 2l3.09 6.26L22 9.27l-5 4.87 1.18 6.88L12 17.77l-6.18 3.25L7 14.14 2 9.27l6.91-1.01L12 2z"
                fill="none" stroke="#3fb950" stroke-width="1.5" stroke-linejoin="round"/>
        </svg>
      </g>
      <text x="48" y="20" font-family="-apple-system,BlinkMacSystemFont,Segoe UI,Helvetica,Arial,sans-serif"
            font-size="13" font-weight="600" fill="#d1d9e0">Speaker at PyCon</text>
      <text x="48" y="36" font-family="-apple-system,BlinkMacSystemFont,Segoe UI,Helvetica,Arial,sans-serif"
            font-size="10" fill="#7d8895">Async at scale · 2024-05</text>
    </g>
    <g transform="translate(16, 120)">
      <rect width="348" height="48" rx="8" fill="#58a6ff" opacity="0.06"/>
      <rect width="348" height="48" rx="8" fill="none" stroke="#58a6ff" stroke-width="0.5" opacity="0.3"/>
      <g transform="translate(12, 12)">
        <svg viewBox="0 0 24 24" width="24" height="24">
          <path d="M7 2h10v2h2.5c.8 0 1.5.7 1.5 1.5V8c0 1.7-1.3 3-3 3h-.5c-.5 1.5-1.8 2.7-3.5 3v2.5h3c.6 0 1 .4 1 1s-.4 1-1 1H7c-.6 0-1-.4-1-1s.4-1 1-1h3V14c-1.7-.3-3-1.5-3.5-3H6c-1.7 0-3-1.3-3-3V5.5C3 4.7 3.7 4 4.5 4H7V2zm0 4H4.5v2c0 .8.7 1.5 1.5 1.5h1V6zm12.5 0H17v3.5h1c.8 0 1.5-.7 1.5-1.5V6z" fill="#58a6ff" opacity="0.85"/>
        </svg>
      </g>
      <text x="48" y="20" font-family="-apple-system,BlinkMacSystemFont,Segoe UI,Helvetica,Arial,sans-serif"
            font-size="13" font-weight="600" fill="#d1d9e0">Open Source Award</text>
      <text x="48" y="36" font-family="-apple-system,BlinkMacSystemFont,Segoe UI,Helvetica,Arial,sans-serif"
            font-size="10" fill="#7d8895">GitHub Stars program · 2024-01</text>
    </g>
    <g transform="translate(16, 176)">
      <rect width="348" height="48" rx="8" fill="#bc8cff" opacity="0.06"/>
      <rect width="348" height="48" rx="8" fill="none" stroke="#bc8cff" stroke-width="0.5" opacity="0.3"/>
      <g transform="translate(12, 12)">
        <svg viewBox="0 0 24 24" width="24" height="24">
          <circle cx="12" cy="14" r="5" fill="#bc8cff" opacity="0.2"/>
          <circle cx="12" cy="14" r="4" fill="none" stroke="#bc8cff" stroke-width="1.5"/>
          <path d="M12 11.5l1 2 2.2.3-1.6 1.5.4 2.2-2-1-2 1 .4-2.2-1.6-1.5 2.2-.3z" fill="#bc8cff"/>
          <path d="M9 3l3 8m0-8l3 8m-6-8h6" stroke="#bc8cff" stroke-width="1.5" fill="none" stroke-linecap="round"/>
        </svg>
      </g>
      <text x="48" y="20" font-family="-apple-system,BlinkMacSystemFont,Segoe UI,Helvetica,Arial,sans-serif"
            font-size="13" font-weight="600" fill="#d1d9e0">AWS Certified Solutions Architect</text>
      <text x="48" y="36" font-family="-apple-system,BlinkMacSystemFont,Segoe UI,Helvetica,Arial,sans-serif"
            font-size="10" fill="#7d8895">Professional · 2023-09</text>
    </g>
  </g>
</svg>