<svg xmlns="http://www.w3.org/2000/svg" width="380" height="200" viewBox="0 0 380 200" fill="none">
  <defs>
    <filter id="shadow" x="-2%" y="-2%" width="104%" height="104%">
      <feDropShadow dx="0" dy="1" stdDeviation="2" flood-color="#000" flood-opacity="0.15"/>
    </filter>
    <clipPath id="avatarClip"><circle cx="0" cy="0" r="18"/></clipPath>
  </defs>
  <rect x="1" y="1" width="378" height="198" rx="10" ry="10"
        fill="#1a2230" stroke="#2a3444" stroke-width="1" filter="url(#shadow)"/>
  <text x="20" y="30" font-family="-apple-system,BlinkMacSystemFont,Segoe UI,Noto Sans,Helvetica,Arial,sans-serif" font-size="11" font-weight="600" fill="#7d8895" letter-spacing="0.8" opacity="0.7">IMPACT TIMELINE</text>
  <g transform="translate(0, 36)">
    
    <defs>
      <linearGradient id="areaGrad" x1="0" y1="8" x2="0" y2="90" gradientUnits="userSpaceOnUse">
        <stop offset="0%" stop-color="#a78bfa" stop-opacity="0.35"/>
        <stop offset="100%" stop-color="#a78bfa" stop-opacity="0.02"/>
      </linearGradient>
    </defs>
    <text x="34" y="12.0" text-anchor="end" font-family="-apple-system,BlinkMacSystemFont,Segoe UI,Helvetica,Arial,sans-serif" font-size="9" fill="#7d8895">41</text><line x1="40" y1="8.0" x2="356" y2="8.0" stroke="#1e2836" stroke-width="0.5" stroke-dasharray="3,3"/><text x="34" y="53.0" text-anchor="end" font-family="-apple-system,BlinkMacSystemFont,Segoe UI,Helvetica,Arial,sans-serif" font-size="9" fill="#7d8895">20</text><line x1="40" y1="49.0" x2="356" y2="49.0" stroke="#1e2836" stroke-width="0.5" stroke-dasharray="3,3"/><text x="34" y="94.0" text-anchor="end" font-family="-apple-system,BlinkMacSystemFont,Segoe UI,Helvetica,Arial,sans-serif" font-size="9" fill="#7d8895">0</text><line x1="40" y1="90.0" x2="356" y2="90.0" stroke="#1e2836" stroke-width="0.5" stroke-dasharray="3,3"/>
    <text x="40.0" y="104" text-anchor="middle" font-family="-apple-system,BlinkMacSystemFont,Segoe UI,Helvetica,Arial,sans-serif" font-size="9" fill="#7d8895">2025-10</text><text x="204.3" y="104" text-anchor="middle" font-family="-apple-system,BlinkMacSystemFont,Segoe UI,Helvetica,Arial,sans-serif" font-size="9" fill="#7d8895">2026-01</text><text x="356.0" y="104" text-anchor="middle" font-family="-apple-system,BlinkMacSystemFont,Segoe UI,Helvetica,Arial,sans-serif" font-size="9" fill="#7d8895">2026-04</text>
    <path d="M 40.0 84.0 C 46.3 84.0, 46.3 80.0, 52.6 80.0 C 59.0 80.0, 59.0 74.0, 65.3 74.0 C 71.6 74.0, 71.6 78.0, 77.9 78.0 C 84.2 78.0, 84.2 68.0, 90.6 68.0 C 96.9 68.0, 96.9 62.0, 103.2 62.0 C 109.5 62.0, 109.5 72.0, 115.8 72.0 C 122.2 72.0, 122.2 66.0, 128.5 66.0 C 134.8 66.0, 134.8 54.0, 141.1 54.0 C 147.4 54.0, 147.4 46.0, 153.8 46.0 C 160.1 46.0, 160.1 56.0, 166.4 56.0 C 172.7 56.0, 172.7 52.0, 179.0 52.0 C 185.4 52.0, 185.4 40.0, 191.7 40.0 C 198.0 40.0, 198.0 48.0, 204.3 48.0 C 210.6 48.0, 210.6 34.0, 217.0 34.0 C 223.3 34.0, 223.3 26.0, 229.6 26.0 C 235.9 26.0, 235.9 38.0, 242.2 38.0 C 248.6 38.0, 248.6 42.0, 254.9 42.0 C 261.2 42.0, 261.2 30.0, 267.5 30.0 C 273.8 30.0, 273.8 20.0, 280.2 20.0 C 286.5 20.0, 286.5 32.0, 292.8 32.0 C 299.1 32.0, 299.1 24.0, 305.4 24.0 C 311.8 24.0, 311.8 8.0, 318.1 8.0 C 324.4 8.0, 324.4 14.0, 330.7 14.0 C 337.0 14.0, 337.0 22.0, 343.4 22.0 C 349.7 22.0, 349.7 16.0, 356.0 16.0 L 356.0 90 L 40.0 90 Z" fill="url(#areaGrad)"/>
    <path d="M 40.0 84.0 C 46.3 84.0, 46.3 80.0, 52.6 80.0 C 59.0 80.0, 59.0 74.0, 65.3 74.0 C 71.6 74.0, 71.6 78.0, 77.9 78.0 C 84.2 78.0, 84.2 68.0, 90.6 68.0 C 96.9 68.0, 96.9 62.0, 103.2 62.0 C 109.5 62.0, 109.5 72.0, 115.8 72.0 C 122.2 72.0, 122.2 66.0, 128.5 66.0 C 134.8 66.0, 134.8 54.0, 141.1 54.0 C 147.4 54.0, 147.4 46.0, 153.8 46.0 C 160.1 46.0, 160.1 56.0, 166.4 56.0 C 172.7 56.0, 172.7 52.0, 179.0 52.0 C 185.4 52.0, 185.4 40.0, 191.7 40.0 C 198.0 40.0, 198.0 48.0, 204.3 48.0 C 210.6 48.0, 210.6 34.0, 217.0 34.0 C 223.3 34.0, 223.3 26.0, 229.6 26.0 C 235.9 26.0, 235.9 38.0, 242.2 38.0 C 248.6 38.0, 248.6 42.0, 254.9 42.0 C 261.2 42.0, 261.2 30.0, 267.5 30.0 C 273.8 30.0, 273.8 20.0, 280.2 20.0 C 286.5 20.0, 286.5 32.0, 292.8 32.0 C 299.1 32.0, 299.1 24.0, 305.4 24.0 C 311.8 24.0, 311.8 8.0, 318.1 8.0 C 324.4 8.0, 324.4 14.0, 330.7 14.0 C 337.0 14.0, 337.0 22.0, 343.4 22.0 C 349.7 22.0, 349.7 16.0, 356.0 16.0" fill="none" stroke="#a78bfa" stroke-width="2" stroke-linecap="round"/>
    <g transform="translate(20, 136)">
      <text x="0" y="0" font-family="-apple-system,BlinkMacSystemFont,Segoe UI,Helvetica,Arial,sans-serif"
            font-size="13" font-weight="700" fill="#d1d9e0">577</text>
      <text x="0" y="14" font-family="-apple-system,BlinkMacSystemFont,Segoe UI,Helvetica,Arial,sans-serif"
            font-size="9" fill="#7d8895">commits over 6mo</text>
    </g>
  </g>
</svg>